<?xml version="1.0" standalone="no"?><!DOCTYPE svg PUBLIC "-//W3C//DTD SVG 1.1//EN" "http://www.w3.org/Graphics/SVG/1.1/DTD/svg11.dtd"><svg t="1562055837125" class="icon" viewBox="0 0 1256 1024" version="1.1" xmlns="http://www.w3.org/2000/svg" p-id="10179" xmlns:xlink="http://www.w3.org/1999/xlink" width="245.3125" height="200"><defs><style type="text/css"></style></defs><path d="M1132.372016 541.860078c0 3.648889 2.797482 6.689631 6.203112 6.689631s6.203112-2.919112 6.203112-6.689631c0-3.648889-2.797482-6.689631-6.203112-6.68963s-6.203112 3.040741-6.203112 6.68963z m0 0M196.67514 21.163559c0 2.432593 1.216296 4.621927 3.16237 5.716593 1.946074 1.216296 4.257038 1.216296 6.203112 0 1.946074-1.216296 3.162371-3.40563 3.162371-5.716593 0-2.432593-1.216296-4.621927-3.162371-5.716594-1.946074-1.216296-4.257038-1.216296-6.203112 0-1.946074 1.094667-3.162371 3.284-3.16237 5.716594z m0 0M107.763867 554.631191c0 2.432593 1.216296 4.621927 3.162371 5.716594 1.946074 1.216296 4.257038 1.216296 6.203112 0 1.946074-1.216296 3.162371-3.40563 3.162371-5.716594s-1.216296-4.621927-3.162371-5.716593c-1.946074-1.216296-4.257038-1.216296-6.203112 0-1.946074 1.094667-3.162371 3.284-3.162371 5.716593z m0 0M24.812448 376.443758c-13.86578 0.729778-24.812448 12.284594-24.812448 26.272004 0 13.987409 10.825039 25.420596 24.812448 26.272004 13.86578-0.851408 24.812448-12.284594 24.812448-26.272004 0-13.987409-10.946668-25.420596-24.812448-26.272004z m0 39.772895c-7.05452-0.608148-12.527854-6.446371-12.527854-13.500891s5.473334-13.014372 12.527854-13.500891c7.05452 0.608148 12.527854 6.446371 12.527854 13.500891s-5.473334 13.014372-12.527854 13.500891z m0 0M1222.986103 768.091222c-9.852001-0.486519-19.095855 4.986816-23.231263 13.98741-4.135408 9.000594-2.432593 19.582373 4.378668 26.758522 6.81126 7.176149 17.27141 9.487112 26.515263 5.838223 9.243853-3.648889 15.203706-12.527854 15.203706-22.501485 0.364889-12.892743-9.852001-23.717781-22.866374-24.08267z m0 39.772895c-6.446371 0.486519-12.527854-2.919112-15.446965-8.757335-2.797482-5.838223-1.824445-12.771113 2.554222-17.514669 4.378667-4.743556 11.189928-6.324742 17.27141-4.013778 6.081482 2.310963 9.973631 8.149186 9.973631 14.595557 0.364889 8.392446-6.081482 15.325336-14.352298 15.690225z m0 0M148.631429 956.373916c-1.581185-1.094667-3.284-1.946074-5.108445-2.554222l-4.257038 11.919705c0.851408 0.364889 1.702815 0.729778 2.432593 1.216296l6.93289-10.581779z m-26.028745 23.109633l-12.649483 0.608148c0.12163 1.824445 0.364889 3.648889 0.851408 5.473334l12.284594-3.040741c-0.364889-1.094667-0.486519-2.067704-0.486519-3.040741z m1.459556 5.716594l-11.433187 5.473334c0.851408 1.702815 1.702815 3.284 2.919112 4.743556l10.095261-7.662668c-0.729778-0.851408-1.216296-1.702815-1.581186-2.554222z m19.704003-16.420003c0.608148 0.729778 1.216296 1.459556 1.702815 2.310963l10.825039-6.68963c-0.973037-1.581185-2.067704-2.919112-3.40563-4.257038l-9.122224 8.635705z m-7.297779-3.770519l1.459556-12.649483c-1.824445-0.243259-3.770519-0.243259-5.716593 0l1.459555 12.649483c0.973037-0.12163 1.946074-0.12163 2.797482 0z m-26.272004 9.608742l12.649484 1.946075c0.12163-0.973037 0.364889-1.946074 0.729778-2.919112l-11.919706-4.257038c-0.608148 1.702815-1.094667 3.52726-1.459556 5.230075z m20.9203-8.878964l-4.257038-11.919705c-1.824445 0.608148-3.52726 1.581185-5.108445 2.554222l7.054519 10.581779c0.729778-0.486519 1.581185-0.973037 2.310964-1.216296z m-3.52726 24.08267l-8.270816 9.730372c1.459556 1.216296 3.040741 2.310963 4.743556 3.162371l5.716594-11.311557c-0.729778-0.486519-1.581185-1.094667-2.189334-1.581186z m-1.094667-21.041929l-9.122223-8.757334c-1.216296 1.337926-2.432593 2.675852-3.405631 4.257037l10.825039 6.689631c0.486519-0.851408 1.094667-1.581185 1.702815-2.189334z m13.98741 22.501485l5.716593 11.311557c1.702815-0.851408 3.284-1.946074 4.743556-3.162371l-8.149186-9.730372c-0.729778 0.729778-1.581185 1.216296-2.310963 1.581186z m19.582373-16.541632c-0.243259-1.824445-0.729778-3.648889-1.337926-5.351705l-11.919706 4.257038c0.364889 0.973037 0.608148 1.824445 0.729778 2.797482l12.527854-1.702815z m-12.771113 7.784297l12.284594 3.040741c0.486519-1.824445 0.729778-3.648889 0.851408-5.473334l-12.649484-0.608148c-0.12163 1.094667-0.243259 2.067704-0.486518 3.040741z m-17.879558 22.136596c1.824445 0.486519 3.770519 0.729778 5.716593 0.729778v-12.649483c-0.973037 0-1.824445-0.12163-2.675852-0.364889l-3.040741 12.284594z m15.325335-16.906521l10.095261 7.784298c1.094667-1.459556 2.067704-3.040741 2.919111-4.743557l-11.433186-5.473334c-0.486519 0.851408-0.973037 1.581185-1.581186 2.432593z m-9.608742 4.743556v12.649484c1.946074 0 3.770519-0.243259 5.716593-0.729778l-2.919111-12.041335c-0.973037 0.243259-1.946074 0.243259-2.797482 0.121629z m0 0M1221.404917 285.221523c-0.973037-0.243259-1.946074-0.486519-2.919111-0.851408l-4.743556 11.798076c1.702815 0.729778 3.40563 1.216296 5.108445 1.581185l2.554222-12.527853z m-16.663261 5.230075c1.337926 1.216296 2.675852 2.189334 4.257037 3.16237l6.811261-10.703409c-0.851408-0.608148-1.702815-1.216296-2.554223-1.946074l-8.514075 9.487113z m38.678228-26.515264l12.649483-0.851407c-0.12163-1.702815-0.364889-3.40563-0.729778-5.108445l-12.406224 2.797482c0.243259 0.973037 0.486519 2.067704 0.486519 3.16237z m-1.459556-6.446371l11.798076-4.621926c-0.608148-1.581185-1.459556-3.162371-2.310964-4.743557l-10.825038 6.446372c0.608148 0.973037 0.973037 1.946074 1.337926 2.919111z m-25.663856-9.973631l-6.324741-10.946668c-1.459556 0.851408-2.919112 1.946074-4.257038 3.040741l8.149186 9.730372c0.729778-0.729778 1.581185-1.337926 2.432593-1.824445z m24.32593-10.581779c-1.581185-0.973037-3.162371-1.702815-4.743557-2.310964l-4.621926 11.798076c0.973037 0.364889 1.946074 0.851408 2.797482 1.337926l6.568001-10.825038z m-0.364889 56.922675l-6.446372-10.946669c-0.851408 0.486519-1.824445 0.973037-2.797481 1.337927l4.500297 11.919705c1.702815-0.608148 3.284-1.337926 4.743556-2.310963z m-18.122818-48.4086l-2.067704-12.649483c-1.824445 0.243259-3.52726 0.729778-5.230075 1.337926l4.257038 11.919705c0.973037-0.364889 1.946074-0.486519 3.040741-0.608148z m8.149187 52.300748l-2.310964-12.406224c-0.973037 0.243259-2.067704 0.243259-3.040741 0.24326h-0.364889l-0.364889 12.649483h0.851408c1.702815 0.12163 3.40563-0.12163 5.230075-0.486519z m8.392445-45.854377l9.852002-8.027556c-1.094667-1.337926-2.310963-2.554223-3.64889-3.770519l-8.514075 9.487112c0.851408 0.729778 1.702815 1.581185 2.310963 2.310963z m-8.027556-18.852595c-1.702815-0.364889-3.52726-0.486519-5.351705-0.608148v12.649483c0.973037 0 2.067704 0.12163 3.040741 0.243259l2.310964-12.284594z m-24.2043 32.353486v-1.946074l-12.649483-1.216297v5.230075l12.649483-0.729778v-1.337926z m0.364889 4.500297l-12.284595 2.797482c0.364889 1.702815 0.851408 3.40563 1.459556 4.986816l11.798076-4.500297c-0.364889-1.094667-0.729778-2.189334-0.973037-3.284001z m4.257037 8.757335c-0.608148-0.851408-1.216296-1.702815-1.824444-2.675852l-10.946669 6.324741c0.851408 1.459556 1.824445 2.919112 2.919112 4.257038l9.852001-7.905927z m25.420597 2.554222l8.514075 9.608743c1.337926-1.094667 2.554223-2.432593 3.770519-3.77052l-9.730372-8.149186c-0.851408 0.851408-1.702815 1.581185-2.554222 2.310963z m4.135408-4.865186l10.825038 6.568001c0.851408-1.459556 1.702815-3.040741 2.310964-4.743556l-11.798076-4.743556c-0.243259 1.094667-0.729778 2.067704-1.337926 2.919111z m-29.069486-24.812448l-9.608742-8.514075c-1.094667 1.337926-2.189334 2.797482-3.040741 4.257038l10.825038 6.68963c0.486519-0.851408 1.094667-1.702815 1.824445-2.432593z m31.380449 18.852596l12.406224 2.919111c0.364889-1.702815 0.729778-3.40563 0.851408-5.108445l-12.649484-0.973037c-0.243259 0.973037-0.486519 2.067704-0.608148 3.162371z m-34.786079-13.379261l-11.676446-4.865186c-0.608148 1.581185-1.216296 3.284-1.581186 4.986815l12.284595 3.040741c0.12163-1.094667 0.486519-2.067704 0.973037-3.16237z m0 0M1113.032902 93.411569v-7.905927c0-0.608148-0.243259-1.094667-0.608148-1.459556-0.364889-0.364889-0.973037-0.608148-1.459556-0.608148h-20.190522V63.125787c0-0.608148-0.243259-1.094667-0.608148-1.459556-0.364889-0.364889-0.973037-0.608148-1.459556-0.608148h-7.905927c-1.216296 0-2.067704 0.973037-2.067704 2.067704v20.190521h-20.190521c-1.216296 0-2.067704 0.973037-2.067704 2.067704v7.905927c0 1.216296 0.973037 2.067704 2.067704 2.067704h20.190521V115.548165c0 1.216296 0.973037 2.067704 2.067704 2.067704h7.905927c0.608148 0 1.094667-0.243259 1.459556-0.608148 0.364889-0.364889 0.608148-0.973037 0.608148-1.459556V95.479273h20.190522c1.094667 0 2.067704-0.973037 2.067704-2.067704z m0 0M208.351586 203.243141h-21.650078v-21.650078c0-0.608148-0.243259-1.094667-0.608148-1.459555-0.364889-0.364889-0.973037-0.608148-1.459556-0.608149h-8.514075c-0.608148 0-1.094667 0.243259-1.459556 0.608149-0.364889 0.364889-0.608148 0.973037-0.608148 1.459555v21.650078h-21.771707c-0.608148 0-1.094667 0.243259-1.459555 0.608148-0.364889 0.364889-0.608148 0.973037-0.608149 1.459556v8.514075c0 0.608148 0.243259 1.094667 0.608149 1.459556 0.364889 0.364889 0.973037 0.608148 1.459555 0.608148h21.528448v21.650077c0 1.216296 0.973037 2.067704 2.067704 2.067704h8.514075c0.608148 0 1.094667-0.243259 1.459556-0.608148 0.364889-0.364889 0.608148-0.973037 0.608148-1.459556v-21.406818h21.650077c1.216296 0 2.067704-0.973037 2.067704-2.067704v-8.514075c0.12163-1.094667-0.608148-2.067704-1.824444-2.310963z m0 0M1165.576909 968.90177h-25.055707V943.846062c0-0.608148-0.243259-1.094667-0.608148-1.459555-0.364889-0.364889-0.973037-0.608148-1.459556-0.608149h-10.581779c-0.608148 0-1.094667 0.243259-1.459556 0.608149-0.364889 0.364889-0.608148 0.973037-0.608148 1.459555v25.055708H1100.748307c-0.608148 0-1.094667 0.243259-1.459555 0.608148-0.364889 0.364889-0.608148 0.973037-0.608149 1.459556v10.581779c0 0.608148 0.243259 1.094667 0.608149 1.459556 0.364889 0.364889 0.973037 0.608148 1.459555 0.608148h25.055708v25.055707c0 1.216296 0.973037 2.067704 2.067704 2.067704h10.581779c1.216296 0 2.067704-0.973037 2.067704-2.067704v-25.055707h25.055707c0.608148 0 1.094667-0.243259 1.459556-0.608148 0.364889-0.364889 0.608148-0.973037 0.608148-1.459556v-10.581779c0-0.608148-0.243259-1.094667-0.608148-1.459556-0.364889-0.486519-0.851408-0.608148-1.459556-0.608148z m0 0M753.130776 356.374866c-0.486519-1.702815-1.094667-3.040741-1.946075-4.257037-0.851408-1.216296-1.824445-2.189334-2.919111-2.797482-1.094667-0.729778-2.310963-1.094667-3.64889-1.094667-2.797482 0-5.108445 1.337926-6.81126 3.892149-1.702815 2.554223-2.554223 5.838223-2.554223 9.852001h18.609337c-0.12163-2.067704-0.364889-3.892149-0.729778-5.594964z" fill="#659A32" p-id="10180"></path><path d="M986.659698 483.356218l-27.36667-23.109633V100.344459c0-13.257632-10.825039-23.961041-23.961041-23.961041H347.374272c-13.257632 0-23.961041 10.825039-23.96104 23.961041V460.976363l-27.4883 23.109633c-3.162371 1.337926-5.838223 3.52726-7.662668 6.446371l-0.608148 0.486519v0.486518c-1.337926 2.310963-1.946074 4.986816-1.946075 7.662668v433.488063c0 9.000594 7.297779 16.176743 16.176743 16.176743H982.76755c9.000594 0 16.176743-7.297779 16.176743-16.176743V499.168072c0-7.541038-4.986816-13.987409-12.284595-15.811854zM959.293028 465.841549l24.934077 21.163558 0.364889 0.24326c-0.608148-0.12163-1.216296-0.12163-1.702815-0.12163h-0.608148l-22.866374 14.717187V465.841549zM808.958784 321.102269H848.974938l-2.067704 21.041929c6.081482-15.811854 16.055113-23.596152 30.042523-23.596152v44.88134c-4.378667-2.432593-8.149186-3.648889-11.189928-3.64889-5.351704 0-9.487112 1.946074-12.406224 5.838224s-4.378667 9.608742-4.378667 17.02815v46.340896h-40.016154V321.102269z m-100.344459 14.109039c9.365483-10.825039 21.528448-16.298373 36.367264-16.298373 14.717187 0 26.515263 5.230075 35.272598 15.690225 8.757335 10.46015 13.136002 24.447559 13.136002 41.840598l-0.243259 7.05452H734.643069c0.486519 11.068298 3.648889 16.541632 9.365483 16.541632 4.500297 0 7.541038-2.554223 8.878964-7.541038l39.164747 0.851407c-2.797482 12.527854-8.270816 22.014966-16.298373 28.339708-8.027557 6.324742-18.609336 9.487112-31.623708 9.487112-15.446965 0-27.4883-4.743556-36.367265-14.352298-8.757335-9.730372-13.014372-22.988003-13.014372-39.772895-0.12163-17.14978 4.500297-31.13719 13.86578-41.840598zM619.946312 321.102269h11.554816v-19.825633c0-13.86578 3.040741-24.447559 9.000594-31.623708 5.959853-7.176149 14.838817-10.825039 26.515263-10.825039 5.838223 0 12.041335 0.973037 18.852596 2.797482v37.097043c-3.52726-2.554223-6.203112-3.770519-8.149187-3.770519-4.135408 0-6.203112 3.648889-6.203112 11.068297V321.102269h14.352299v32.231856h-14.352299v75.653641h-40.016154v-75.653641h-11.554816V321.102269z m-74.194085 0h11.554817v-19.825633c0-13.86578 3.040741-24.447559 9.000593-31.623708 5.959853-7.176149 14.838817-10.825039 26.515264-10.825039 5.838223 0 12.041335 0.973037 18.852595 2.797482v37.097043c-3.52726-2.554223-6.203112-3.770519-8.149186-3.770519-4.135408 0-6.203112 3.648889-6.203112 11.068297V321.102269h14.352298v32.231856h-14.352298v75.653641h-40.016154v-75.653641h-11.554817V321.102269z m-105.088015-32.961635c10.581779-10.703409 23.109633-16.055113 37.583561-16.055113 17.757928 0 31.866968 7.297779 42.448747 21.771707 10.46015 14.473928 15.811854 34.056301 15.811854 58.62549 0 23.474522-5.351704 42.570377-16.055114 57.287564-10.703409 14.595558-24.569189 21.893337-41.597339 21.893336-15.203706 0-28.218078-5.594964-39.043117-16.906521-13.62252-14.230669-20.433781-35.637487-20.43378-64.098824 0-27.245041 7.05452-48.043711 21.285188-62.517639zM323.169973 466.571327v33.813042l319.156194 205.310844-339.346716-218.203587-0.486518-0.364889h-0.608149c-1.337926 0-2.554223 0.243259-3.770519 0.608148l25.055708-21.163558zM291.911153 501.357406c0-5.230075 4.013778-9.487112 9.243854-9.852002l337.157382 216.744032L291.911153 930.95332V501.357406z m700.465139 429.474284v6.203112c-0.12163 0.364889-0.243259 0.851408-0.364889 1.216297v0.486518c-0.243259 0.486519-0.486519 1.094667-0.851408 1.581186-0.243259 0.364889-0.608148 0.851408-0.973037 1.216296l-0.486519 0.486519-0.851407 0.729778-0.608148 0.364889-0.973037 0.486518-0.608149 0.243259-1.216296 0.364889h-0.486519c-0.608148 0.12163-1.216296 0.12163-1.946074 0H301.763155c-0.608148 0.12163-1.216296 0.12163-1.946075 0H299.208932l-1.216296-0.364889-0.608149-0.364888-0.973037-0.486519-0.608148-0.486519-0.851407-0.729778-0.486519-0.608148-0.729778-0.851407-0.364889-0.729778c-0.243259-0.243259-0.364889-0.608148-0.486518-0.973037l-0.24326-0.729778c-0.12163-0.364889-0.243259-0.729778-0.243259-0.973037v-1.337927l330.95427-212.973512 33.569783-21.893336h0.243259l325.967455-209.689512c5.230075 0.364889 9.243853 4.621927 9.243853 9.852001l0.121629 429.717544h-0.121629z" fill="#659A32" p-id="10181"></path><path d="M477.639625 392.742131c4.865186 0 8.757335-3.52726 11.433186-10.581779 2.797482-7.05452 4.135408-16.906521 4.135409-29.434375 0-27.853189-4.865186-41.840599-14.717188-41.840599-4.865186 0-8.878964 3.648889-11.798076 10.946669-2.919112 6.81126-4.257038 16.784891-4.257037 29.920893 0 13.014372 1.337926 22.988003 4.013778 30.164152 2.675852 7.297779 6.446371 10.825039 11.189928 10.825039z" fill="#659A32" p-id="10182"></path></svg>