<?xml version="1.0" standalone="no"?><!DOCTYPE svg PUBLIC "-//W3C//DTD SVG 1.1//EN" "http://www.w3.org/Graphics/SVG/1.1/DTD/svg11.dtd"><svg t="1561945515647" class="icon" viewBox="0 0 1024 1024" version="1.1" xmlns="http://www.w3.org/2000/svg" p-id="2519" xmlns:xlink="http://www.w3.org/1999/xlink" width="200" height="200"><defs><style type="text/css"></style></defs><path d="M526.4 487l60 60c8-10 18-19 29-27l-66-66c-6 13-14 24-23 33zM765.4 358l-65 145c13 2 26 7 37 13l62-140c-12-3-24-10-34-18zM679.4 541c-44 0-79 35-79 79s36 79 79 79c44 0 79-35 79-79s-35-79-79-79z m0 120c-22 0-39-18-39-40 0-23 18-40 39-40 22 0 39 18 39 40s-18 40-39 40zM837.4 186c-44 0-79 35-79 79 0 43 36 79 79 79 44 0 79-35 79-79s-35-79-79-79z m0 119c-22 0-39-18-39-40s17-40 39-40 39 18 39 40-18 40-39 40zM343.4 467l-84 100c10 8 20 18 27 30l84-100c-11-9-20-19-27-30zM186.4 581c-44 0-79 35-79 79s35 79 79 79 79-35 79-79-35-79-79-79z m0 119c-21 0-39-18-39-40s18-40 39-40 39 18 39 40-18 40-39 40z" fill="#1296db" p-id="2520"></path><path d="M857.4 759c0 22-18 40-39 40h-553c-18 0-32-11-38-27-13 5-27 7-41 7 0 33 27 59 59 59h592c33 0 59-27 59-59V368c-12 7-25 12-39 14v377zM226.4 284c0-22 18-40 39-40h455c2-14 7-28 14-40h-489c-33 0-59 27-59 59v277c14 0 27 2 39 7V284h1z" fill="#1296db" p-id="2521"></path><path d="M443.4 324c-44 0-79 35-79 79s35 79 79 79 79-35 79-79-35-79-79-79z m0 119c-22 0-39-18-39-40-1-22 17-40 39-40s39 18 39 40-18 40-39 40z" fill="#1296db" p-id="2522"></path></svg>